<?xml version="1.0" encoding="UTF-8"?>
<svg version="1.1" xmlns="http://www.w3.org/2000/svg" width="180" height="180" fill="red">
<path d="M0 0 C0.72574219 -0.00636475 1.45148438 -0.01272949 2.19921875 -0.01928711 C6.61802836 0.08677662 9.64513103 0.71610482 13.125 3.5 C13.125 4.16 13.125 4.82 13.125 5.5 C13.785 5.5 14.445 5.5 15.125 5.5 C18.44808461 9.62744983 18.63255052 13.64864083 18.5625 18.75 C18.55565186 19.50853271 18.54880371 20.26706543 18.54174805 21.04858398 C18.37234168 26.96257917 17.30095661 31.44734176 14.125 36.5 C13.72796875 37.19351563 13.3309375 37.88703125 12.921875 38.6015625 C10.36979218 42.91425942 7.52838264 46.82066742 4.125 50.5 C3.465 50.5 2.805 50.5 2.125 50.5 C2.125 51.16 2.125 51.82 2.125 52.5 C-7.48135403 60.39855776 -16.45141986 63.38880939 -28.875 62.5 C-28.875 63.16 -28.875 63.82 -28.875 64.5 C-30.50053283 66.20680947 -32.16615995 67.87660195 -33.875 69.5 C-30.52544827 70.61651724 -30.11609019 70.32550844 -26.875 69.5 C-16.09055027 68.76660933 -5.67953104 68.68347425 3.0625 75.9375 C3.743125 76.783125 4.42375 77.62875 5.125 78.5 C5.846875 79.325 6.56875 80.15 7.3125 81 C10.92464938 85.98227501 11.4653959 90.45216992 11.4375 96.5 C11.45361328 97.19867188 11.46972656 97.89734375 11.48632812 98.6171875 C11.49052662 103.06759375 10.93528237 105.99911295 8.125 109.5 C7.465 109.5 6.805 109.5 6.125 109.5 C6.125 110.16 6.125 110.82 6.125 111.5 C0.05317856 116.20076499 -6.57430893 118.42990907 -13.875 120.5 C-13.15957031 121.14324219 -12.44414062 121.78648438 -11.70703125 122.44921875 C-5.30773384 128.24091925 0.89740514 134.176508 6.93432617 140.34643555 C9.74681185 143.29163724 9.74681185 143.29163724 13.125 145.5 C13.125 146.16 13.125 146.82 13.125 147.5 C13.764375 147.768125 14.40375 148.03625 15.0625 148.3125 C17.125 149.5 17.125 149.5 18.125 152.5 C19.4403341 153.20151152 20.77617592 153.86525925 22.125 154.5 C23.875 156 23.875 156 25.125 157.5 C25.125 158.16 25.125 158.82 25.125 159.5 C25.764375 159.809375 26.40375 160.11875 27.0625 160.4375 C29.125 161.5 29.125 161.5 30.125 162.5 C30.4375 165.375 30.4375 165.375 30.125 168.5 C28.5 170.4375 28.5 170.4375 26.125 171.5 C22.89455526 171.64357532 20.96938774 171.2072989 18.46484375 169.109375 C17.27408092 167.90504995 16.10477537 166.67927953 14.953125 165.4375 C13.22052122 163.60123616 11.4311676 161.99782992 9.5 160.375 C4.925806 156.44911696 0.7311847 152.15931798 -3.48291016 147.85498047 C-6.38726133 144.79834984 -6.38726133 144.79834984 -9.875 142.5 C-9.875 141.84 -9.875 141.18 -9.875 140.5 C-10.865 140.17 -11.855 139.84 -12.875 139.5 C-12.875 138.84 -12.875 138.18 -12.875 137.5 C-13.535 137.5 -14.195 137.5 -14.875 137.5 C-14.875 136.84 -14.875 136.18 -14.875 135.5 C-15.535 135.5 -16.195 135.5 -16.875 135.5 C-16.545 136.16 -16.215 136.82 -15.875 137.5 C-15.80549459 139.04023996 -15.79047643 140.58334988 -15.8125 142.125 C-15.82152344 142.94226563 -15.83054688 143.75953125 -15.83984375 144.6015625 C-15.85724609 145.54128906 -15.85724609 145.54128906 -15.875 146.5 C-16.94121582 146.5501123 -18.00743164 146.60022461 -19.10595703 146.65185547 C-55.84250055 148.30266573 -55.84250055 148.30266573 -92.296875 152.9140625 C-95.875 153.5 -95.875 153.5 -97.875 153.5 C-97.875 151.52 -97.875 149.54 -97.875 147.5 C-98.65875 148.325 -99.4425 149.15 -100.25 150 C-102.875 152.5 -102.875 152.5 -104.875 152.5 C-105.101875 153.015625 -105.32875 153.53125 -105.5625 154.0625 C-107.35717618 157.39547005 -109.37465015 160.64703671 -111.875 163.5 C-112.535 163.5 -113.195 163.5 -113.875 163.5 C-114.21337891 164.28117187 -114.21337891 164.28117187 -114.55859375 165.078125 C-117.74323072 170.93710102 -122.96757762 179.14964079 -129.53125 181.41796875 C-131.89025497 181.43711652 -133.66219491 181.31217242 -135.875 180.5 C-137.875 178.5 -137.875 178.5 -138.3203125 176.26953125 C-137.68346858 172.30880898 -135.37330933 170.0488699 -132.75 167.1875 C-131.73642475 166.04330855 -130.72469641 164.89747831 -129.71484375 163.75 C-128.97983643 162.92048828 -128.97983643 162.92048828 -128.22998047 162.07421875 C-125.96774391 159.44594824 -123.97314859 156.63828507 -121.99609375 153.79296875 C-121.62613281 153.36628906 -121.25617188 152.93960938 -120.875 152.5 C-120.215 152.5 -119.555 152.5 -118.875 152.5 C-118.648125 151.778125 -118.42125 151.05625 -118.1875 150.3125 C-116.59889919 146.90835541 -114.56511368 145.13033337 -111.875 142.5 C-110.01745193 140.12602154 -108.21209621 137.72093121 -106.42578125 135.29296875 C-105.91402344 134.70128906 -105.40226562 134.10960937 -104.875 133.5 C-104.215 133.5 -103.555 133.5 -102.875 133.5 C-102.875 132.84 -102.875 132.18 -102.875 131.5 C-103.90238281 131.47421875 -104.92976563 131.4484375 -105.98828125 131.421875 C-117.83903481 130.99310258 -129.166654 129.41373152 -137.875 120.5 C-141.24964398 115.77157442 -143.16137864 110.3377184 -142.875 104.5 C-142.20684263 101.33446754 -141.1547057 98.46634709 -139.875 95.5 C-139.61847656 94.86835937 -139.36195313 94.23671875 -139.09765625 93.5859375 C-135.87087797 86.83498203 -129.36362439 83.24719591 -122.5625 80.6875 C-116.20288223 78.7807363 -109.48208405 78.5 -102.875 78.5 C-102.545 77.84 -102.215 77.18 -101.875 76.5 C-101.215 76.5 -100.555 76.5 -99.875 76.5 C-99.5346875 75.324375 -99.5346875 75.324375 -99.1875 74.125 C-97.875 71.5 -97.875 71.5 -95.25 70.1875 C-94.46625 69.960625 -93.6825 69.73375 -92.875 69.5 C-92.875 68.84 -92.875 68.18 -92.875 67.5 C-90.895 67.005 -90.895 67.005 -88.875 66.5 C-88.875 65.84 -88.875 65.18 -88.875 64.5 C-89.535 64.5 -90.195 64.5 -90.875 64.5 C-90.875 63.84 -90.875 63.18 -90.875 62.5 C-91.49503906 62.54640625 -92.11507812 62.5928125 -92.75390625 62.640625 C-106.56109183 63.20336328 -122.26022943 58.67295162 -132.875 49.5 C-132.875 48.84 -132.875 48.18 -132.875 47.5 C-133.865 47.5 -134.855 47.5 -135.875 47.5 C-135.875 46.84 -135.875 46.18 -135.875 45.5 C-136.535 45.5 -137.195 45.5 -137.875 45.5 C-137.875 44.84 -137.875 44.18 -137.875 43.5 C-138.535 43.5 -139.195 43.5 -139.875 43.5 C-142.15886719 41.0464741 -143.99634223 38.27006171 -145.875 35.5 C-146.2978125 34.89929687 -146.720625 34.29859375 -147.15625 33.6796875 C-150.90890969 27.48779902 -150.86109905 20.52170533 -149.875 13.5 C-148.29431665 9.91107142 -146.10465607 8.07098458 -142.51953125 6.40625 C-131.81650332 2.73844722 -120.57948658 4.89959808 -110.421875 9.234375 C-100.95485509 13.93884502 -92.19573417 19.94841847 -85.875 28.5 C-85.875 29.49 -85.875 30.48 -85.875 31.5 C-85.215 31.5 -84.555 31.5 -83.875 31.5 C-80.28934071 37.11233628 -79.93838411 42.9261621 -79.875 49.5 C-80.143125 50.61375 -80.41125 51.7275 -80.6875 52.875 C-81.18977682 55.80744229 -81.18977682 55.80744229 -78.46875 58.6171875 C-74.51280016 62.38294188 -70.81793964 62.32478096 -65.5625 62.25 C-59.05078243 62.28133144 -53.1897467 62.83727767 -46.875 64.5 C-46.25625 63.675 -45.6375 62.85 -45 62 C-44.29875 61.175 -43.5975 60.35 -42.875 59.5 C-42.215 59.5 -41.555 59.5 -40.875 59.5 C-41.35984276 54.85413108 -41.35984276 54.85413108 -42.875 50.5 C-44.19867372 36.77161254 -40.25262292 27.30303365 -32.42578125 16.265625 C-31.91402344 15.68296875 -31.40226562 15.1003125 -30.875 14.5 C-30.215 14.5 -29.555 14.5 -28.875 14.5 C-28.875 13.84 -28.875 13.18 -28.875 12.5 C-20.6298001 4.41766825 -11.4748703 0.08704229 0 0 Z M-129.875 10.5 C-125.875 11.5 -125.875 11.5 -125.875 11.5 Z M-114.875 14.5 C-113.885 15.49 -112.895 16.48 -111.875 17.5 C-110.885 17.17 -109.895 16.84 -108.875 16.5 C-111.69009993 14.2226499 -111.69009993 14.2226499 -114.875 14.5 Z M-108.875 17.5 C-107.58534824 18.87562854 -106.24810707 20.20766393 -104.875 21.5 C-104.215 21.5 -103.555 21.5 -102.875 21.5 C-102.875 20.84 -102.875 20.18 -102.875 19.5 C-104.855 18.84 -106.835 18.18 -108.875 17.5 Z M11.125 18.5 C11.00125 19.22703125 10.8775 19.9540625 10.75 20.703125 C8.2132824 33.06962329 1.87878754 41.73589861 -7.875 49.5 C-8.88863444 50.48617707 -9.89328816 51.48204034 -10.875 52.5 C-6.87618212 51.88479725 -4.07141774 49.89731331 -0.875 47.5 C-0.875 46.84 -0.875 46.18 -0.875 45.5 C-0.27816406 45.2525 0.31867188 45.005 0.93359375 44.75 C6.35794808 41.65589414 9.16775995 35.05236102 11 29.3125 C11.98009801 25.63856535 12.42670794 22.3216339 12.125 18.5 C11.795 18.5 11.465 18.5 11.125 18.5 Z M-102.875 21.5 C-101.75494369 24.86016893 -100.50288203 26.19064913 -97.875 28.5 C-97.215 28.5 -96.555 28.5 -95.875 28.5 C-92.2429729 35.485926 -89.16673713 42.53204267 -89.875 50.5 C-89.215 50.17 -88.555 49.84 -87.875 49.5 C-86.02892048 43.19256165 -87.68554444 37.47002953 -90.625 31.8125 C-92.79401299 28.22748986 -95.58829045 26.05632965 -98.875 23.5 C-99.205 22.84 -99.535 22.18 -99.875 21.5 C-100.865 21.5 -101.855 21.5 -102.875 21.5 Z M-13.875 52.5 C-14.535 53.16 -15.195 53.82 -15.875 54.5 C-14.225 54.17 -12.575 53.84 -10.875 53.5 C-11.865 53.17 -12.855 52.84 -13.875 52.5 Z M-29.875 54.5 C-26.87761059 56.49825961 -26.24152492 56.77550398 -22.875 56.75 C-22.194375 56.75515625 -21.51375 56.7603125 -20.8125 56.765625 C-18.55083993 56.59917603 -18.55083993 56.59917603 -15.875 54.5 C-20.495 54.5 -25.115 54.5 -29.875 54.5 Z M-64.875 70.5 C-62.895 72.81 -60.915 75.12 -58.875 77.5 C-57.555 76.84 -56.235 76.18 -54.875 75.5 C-54.875 74.84 -54.875 74.18 -54.875 73.5 C-54.215 73.5 -53.555 73.5 -52.875 73.5 C-52.875 72.84 -52.875 72.18 -52.875 71.5 C-56.835 71.17 -60.795 70.84 -64.875 70.5 Z M-97.6875 82 C-100.47121053 84.95100083 -103.07519506 88.05092809 -105.61328125 91.21484375 C-106.02964844 91.63894531 -106.44601563 92.06304687 -106.875 92.5 C-107.535 92.5 -108.195 92.5 -108.875 92.5 C-108.215 91.51 -107.555 90.52 -106.875 89.5 C-106.875 88.18 -106.875 86.86 -106.875 85.5 C-111.62981646 86.07634139 -114.84548212 88.05068521 -118.875 90.5 C-118.875 91.16 -118.875 91.82 -118.875 92.5 C-119.865 92.83 -120.855 93.16 -121.875 93.5 C-124.90062267 97.39495651 -127.19208638 101.70069711 -127.375 106.6875 C-126.86414779 110.58274813 -125.88526267 113.14956222 -123.875 116.5 C-123.215 116.5 -122.555 116.5 -121.875 116.5 C-121.97039062 115.88253906 -122.06578125 115.26507813 -122.1640625 114.62890625 C-122.97221067 108.45503012 -122.62032148 103.47159581 -120.875 97.5 C-120.215 97.5 -119.555 97.5 -118.875 97.5 C-118.875 96.84 -118.875 96.18 -118.875 95.5 C-118.215 95.83 -117.555 96.16 -116.875 96.5 C-117.535 97.49 -118.195 98.48 -118.875 99.5 C-120.40133902 104.43124914 -119.41461957 107.90738324 -117.859375 112.64453125 C-116.96010164 114.85488059 -116.96010164 114.85488059 -113.875 115.5 C-114.4009375 114.2625 -114.4009375 114.2625 -114.9375 113 C-116.37049582 107.65014896 -115.42262362 102.80613811 -113.875 97.5 C-112.885 97.83 -111.895 98.16 -110.875 98.5 C-111.205 98.83 -111.535 99.16 -111.875 99.5 C-112.67636108 105.6244435 -112.67636108 105.6244435 -110.7578125 111.2734375 C-109.26034676 112.7956899 -109.26034676 112.7956899 -106.875 114.5 C-107.205 113.819375 -107.535 113.13875 -107.875 112.4375 C-109.07653027 108.90800482 -109.21820345 106.2065973 -108.875 102.5 C-107.35546875 100.7890625 -107.35546875 100.7890625 -105.875 99.5 C-105.82601562 100.13808594 -105.77703125 100.77617188 -105.7265625 101.43359375 C-105.65179688 102.25988281 -105.57703125 103.08617188 -105.5 103.9375 C-105.43039063 104.76121094 -105.36078125 105.58492187 -105.2890625 106.43359375 C-105.15242188 107.11550781 -105.01578125 107.79742187 -104.875 108.5 C-104.215 108.83 -103.555 109.16 -102.875 109.5 C-102.875 106.86 -102.875 104.22 -102.875 101.5 C-102.215 101.5 -101.555 101.5 -100.875 101.5 C-100.75125 102.923125 -100.75125 102.923125 -100.625 104.375 C-100.22425077 107.60461791 -100.22425077 107.60461791 -97.8125 108.875 C-97.173125 109.08125 -96.53375 109.2875 -95.875 109.5 C-95.875 110.16 -95.875 110.82 -95.875 111.5 C-92.08855258 113.97286232 -92.08855258 113.97286232 -87.8125 114 C-85.23819694 112.00699118 -83.02474891 109.94832515 -80.875 107.5 C-80.875 106.51 -80.875 105.52 -80.875 104.5 C-80.215 104.5 -79.555 104.5 -78.875 104.5 C-77.28966298 102.78667246 -75.77958785 101.00310953 -74.3125 99.1875 C-73.10400391 97.70830078 -73.10400391 97.70830078 -71.87109375 96.19921875 C-69.73856007 93.60704378 -69.73856007 93.60704378 -68.875 90.5 C-68.215 90.5 -67.555 90.5 -66.875 90.5 C-66.38 89.015 -66.38 89.015 -65.875 87.5 C-66.37 86.51 -66.37 86.51 -66.875 85.5 C-67.535 85.5 -68.195 85.5 -68.875 85.5 C-68.875 84.84 -68.875 84.18 -68.875 83.5 C-70.59663399 81.79714205 -70.59663399 81.79714205 -72.75 80.0625 C-75.33693722 77.91599116 -76.98684374 76.33223438 -78.875 73.5 C-79.535 73.5 -80.195 73.5 -80.875 73.5 C-80.875 72.84 -80.875 72.18 -80.875 71.5 C-86.73095675 71.5 -93.67557435 78.03305109 -97.6875 82 Z M-24.875 74.5 C-25.205 75.16 -25.535 75.82 -25.875 76.5 C-22.41 78.975 -22.41 78.975 -18.875 81.5 C-24.68289254 80.74435891 -29.57597465 78.70443735 -34.94921875 76.4609375 C-37.88881172 75.17323484 -37.88881172 75.17323484 -40.875 76.5 C-40.875 77.16 -40.875 77.82 -40.875 78.5 C-41.535 78.5 -42.195 78.5 -42.875 78.5 C-44.46469247 80.51791336 -44.46469247 80.51791336 -46 83 C-46.53882812 83.8353125 -47.07765625 84.670625 -47.6328125 85.53125 C-48.04273437 86.1809375 -48.45265625 86.830625 -48.875 87.5 C-48.13443359 88.11488281 -48.13443359 88.11488281 -47.37890625 88.7421875 C-46.73824219 89.28101562 -46.09757812 89.81984375 -45.4375 90.375 C-44.48037109 91.17550781 -44.48037109 91.17550781 -43.50390625 91.9921875 C-41.875 93.5 -41.875 93.5 -40.875 95.5 C-40.215 95.5 -39.555 95.5 -38.875 95.5 C-38.875 96.16 -38.875 96.82 -38.875 97.5 C-36.54166667 100.16666667 -36.54166667 100.16666667 -33.875 102.5 C-33.215 102.5 -32.555 102.5 -31.875 102.5 C-31.875 103.16 -31.875 103.82 -31.875 104.5 C-30.885 104.5 -29.895 104.5 -28.875 104.5 C-28.875 103.84 -28.875 103.18 -28.875 102.5 C-28.215 102.5 -27.555 102.5 -26.875 102.5 C-24.40153696 100.02653696 -23.89186856 98.79238832 -23.6875 95.25 C-23.749375 94.3425 -23.81125 93.435 -23.875 92.5 C-23.215 92.5 -22.555 92.5 -21.875 92.5 C-22.28653737 97.47093824 -22.67100832 101.94508386 -24.875 106.5 C-21.26144211 103.86307938 -18.73403136 101.60943774 -16.875 97.5 C-16.62363967 94.29083829 -16.62363967 94.29083829 -16.875 91.5 C-15.23662655 93.13837345 -15.70414079 95.00016578 -15.6875 97.25 C-15.71508835 101.1013331 -16.02960371 104.03988195 -17.875 107.5 C-16.39 107.005 -16.39 107.005 -14.875 106.5 C-14.875 105.84 -14.875 105.18 -14.875 104.5 C-14.215 104.5 -13.555 104.5 -12.875 104.5 C-10.36964846 99.10624285 -10.36964846 99.10624285 -10.34375 93.34375 C-11.24295953 91.22246361 -11.24295953 91.22246361 -12.875 88.5 C-10.14187499 90.73717333 -8.96981228 91.85197109 -8.44921875 95.41015625 C-8.48660156 96.45042969 -8.52398437 97.49070312 -8.5625 98.5625 C-8.59923828 100.12677734 -8.59923828 100.12677734 -8.63671875 101.72265625 C-8.875 104.5 -8.875 104.5 -9.875 107.5 C-6.03531141 106.0435664 -4.56493538 104.21785783 -2.875 100.5 C-1.7928959 94.54842744 -4.84045986 90.37693952 -7.875 85.5 C-7.215 85.5 -6.555 85.5 -5.875 85.5 C-5.38 86.985 -5.38 86.985 -4.875 88.5 C-4.215 88.5 -3.555 88.5 -2.875 88.5 C-0.69512553 94.90338126 0.2636981 101.01273707 -1.875 107.5625 C-2.205 108.201875 -2.535 108.84125 -2.875 109.5 C-1.225 108.84 0.425 108.18 2.125 107.5 C2.125 106.51 2.125 105.52 2.125 104.5 C2.785 104.5 3.445 104.5 4.125 104.5 C6.50312556 98.90441046 6.408174 94.07262655 4.3828125 88.43359375 C3.67647894 86.76866463 2.90651608 85.13099009 2.125 83.5 C1.465 83.5 0.805 83.5 0.125 83.5 C-0.12378906 82.88511719 -0.37257812 82.27023438 -0.62890625 81.63671875 C-2.09930611 79.11537479 -3.18876453 78.50954877 -5.8125 77.3125 C-6.50214844 76.98894531 -7.19179687 76.66539063 -7.90234375 76.33203125 C-11.82490086 74.67756657 -14.82870608 74.39197533 -19.0625 74.4375 C-20.14917969 74.44652344 -21.23585937 74.45554687 -22.35546875 74.46484375 C-23.18691406 74.47644531 -24.01835938 74.48804687 -24.875 74.5 Z M-57.875 96.5 C-58.6175 97.5725 -59.36 98.645 -60.125 99.75 C-62.16024583 102.62021848 -64.38672575 105.01172575 -66.875 107.5 C-66.875 108.16 -66.875 108.82 -66.875 109.5 C-67.535 109.5 -68.195 109.5 -68.875 109.5 C-69.535 110.82 -70.195 112.14 -70.875 113.5 C-66.60310822 113.22266813 -62.33280589 112.92569416 -58.0625 112.625 C-56.84755859 112.54636719 -55.63261719 112.46773437 -54.38085938 112.38671875 C-52.63579102 112.26103516 -52.63579102 112.26103516 -50.85546875 112.1328125 C-49.24514771 112.02283936 -49.24514771 112.02283936 -47.60229492 111.91064453 C-44.66324373 111.66550873 -44.66324373 111.66550873 -41.875 109.5 C-43.7865825 107.70263155 -45.70386184 105.91210526 -47.625 104.125 C-48.16382812 103.61710937 -48.70265625 103.10921875 -49.2578125 102.5859375 C-51.96597827 100.0759302 -54.42580159 97.88972557 -57.875 96.5 Z M-102.875 109.5 C-102.875 110.16 -102.875 110.82 -102.875 111.5 C-102.215 111.17 -101.555 110.84 -100.875 110.5 C-101.535 110.17 -102.195 109.84 -102.875 109.5 Z M-51.8125 118.4375 C-52.97974609 118.52451172 -54.14699219 118.61152344 -55.34960938 118.70117188 C-56.48076172 118.78818359 -57.61191406 118.87519531 -58.77734375 118.96484375 C-59.80335693 119.043396 -60.82937012 119.12194824 -61.88647461 119.20288086 C-64.91402115 119.50387948 -67.88043399 119.96652227 -70.875 120.5 C-70.215 120.83 -69.555 121.16 -68.875 121.5 C-68.875 122.16 -68.875 122.82 -68.875 123.5 C-69.968125 123.62375 -71.06125 123.7475 -72.1875 123.875 C-75.94881802 124.25464801 -75.94881802 124.25464801 -78.875 126.5 C-75.905 126.83 -72.935 127.16 -69.875 127.5 C-72.515 128.16 -75.155 128.82 -77.875 129.5 C-77.875 129.83 -77.875 130.16 -77.875 130.5 C-73.915 130.5 -69.955 130.5 -65.875 130.5 C-67.855 131.16 -69.835 131.82 -71.875 132.5 C-71.875 132.83 -71.875 133.16 -71.875 133.5 C-68.905 133.5 -65.935 133.5 -62.875 133.5 C-62.875 134.16 -62.875 134.82 -62.875 135.5 C-64.298125 135.438125 -64.298125 135.438125 -65.75 135.375 C-68.97744856 135.15026182 -68.97744856 135.15026182 -70.875 137.5 C-67.905 137.83 -64.935 138.16 -61.875 138.5 C-62.865 139.16 -63.855 139.82 -64.875 140.5 C-51.46841999 140.89238771 -38.21907264 139.69106737 -24.875 138.5 C-25.47091088 130.52209108 -26.42810867 124.78481415 -31.92578125 118.79296875 C-36.88862245 115.50098391 -46.12085818 117.99582609 -51.8125 118.4375 Z M-69.875 140.5 C-65.875 141.5 -65.875 141.5 -65.875 141.5 Z " fill="#b4ced1ba" transform="translate(149.875,-0.5)"/>
</svg>
